{"title":"[MARATHI] Piraticha-Tujhya Majhya Piraticha [BHOR] 720p 2012","uid":8789496,"size":67380914,"categoryP":"video","categoryS":"music_videos","magnet":"?xt=urn:btih:cb18ae85965851708426ff439af2607deff543df&amp;dn=%5BMARATHI%5D+Piraticha-Tujhya+Majhya+Piraticha+%5BBHOR%5D+720p+2012&amp;tr=udp%3A%2F%2Ftracker.openbittorrent.com%3A80&amp;tr=udp%3A%2F%2Fopen.demonii.com%3A1337&amp;tr=udp%3A%2F%2Ftracker.coppersurfer.tk%3A6969&amp;tr=udp%3A%2F%2Fexodus.desync.com%3A6969","seeders":0,"leechers":1,"uploader":"hdbrazzer","files":1,"time":1375905299,"description":"Hou De Jarasa Ushir 2012 is the first Marathi film to be selected among top 282 films for a nomination in Best Film Category for Oscars.[1] The film's screenplay has already been preserved by Academy of Motion Picture Arts and Sciences library for research purposes\n\n\nVideo\nID                                       : 1\nFormat                                   : AVC\nFormat/Info                              : Advanced Video Codec\nFormat profile                           : &lt;a class=&quot;__cf_email__&quot; href=&quot;/cdn-cgi/l/email-protection&quot; data-cfemail=&quot;561e3f313e161a657867&quot;&gt;[email&amp;#160;protected]&lt;/a&gt;&lt;script cf-hash='f9e31' type=&quot;text/javascript&quot;&gt;\n/* &lt;![CDATA[ */!function(){try{var t=&quot;currentScript&quot;in document?document.currentScript:function(){for(var t=document.getElementsByTagName(&quot;script&quot;),e=t.length;e--;)if(t[e].getAttribute(&quot;cf-hash&quot;))return t[e]}();if(t&amp;&amp;t.previousSibling){var e,r,n,i,c=t.previousSibling,a=c.getAttribute(&quot;data-cfemail&quot;);if(a){for(e=&quot;&quot;,r=parseInt(a.substr(0,2),16),n=2;a.length-n;n+=2)i=parseInt(a.substr(n,2),16)^r,e+=String.fromCharCode(i);e=document.createTextNode(e),c.parentNode.replaceChild(e,c)}}}catch(u){}}();/* ]]&gt; */&lt;/script&gt;\nFormat settings, CABAC                   : Yes\nFormat settings, ReFrames                : 1 frame\nCodec ID                                 : avc1\nCodec ID/Info                            : Advanced Video Coding\nDuration                                 : 3mn 41s\nBit rate                                 : 2 238 Kbps\nMaximum bit rate                         : 7849 Kbps\nWidth                                    : 1280 pixels\nHeight                                   : 720 pixels\nDisplay aspect ratio                     : 16:9\nFrame rate mode                          : Constant\nFrame rate                               : 29.970 fps\nColor space                              : YUV\nChroma subsampling                       : 4:2:0\nBit depth                                : 8 bits\nScan type                                : Progressive\nBits/(Pixel*Frame)                       : 0.081\nStream size                              : 59.1 MiB (92%)\n\n\nAudio\nID                                       : 2\nFormat                                   : AAC\nFormat/Info                              : Advanced Audio Codec\nFormat profile                           : LC\nCodec ID                                 : 40\nDuration                                 : 3mn 41s\nBit rate mode                            : Variable\nBit rate                                 : 192 Kbps\nMaximum bit rate                         : 201 Kbps\nChannel(s)                               : 2 channels\nChannel positions                        : Front: L R\nSampling rate                            : 44.1 KHz\nCompression mode                         : Lossy\nStream size                              : 5.07 MiB (8%)\n\nScreens  &lt;a href=&quot;\nhttp://postimg.org/image/etua7sgit/&quot; rel=&quot;nofollow&quot; target=&quot;_NEW&quot;&gt;\nhttp://postimg.org/image/etua7sgit/&lt;/a&gt;  &lt;a href=&quot;\nhttp://postimg.org/image/u71jmtaif/&quot; rel=&quot;nofollow&quot; target=&quot;_NEW&quot;&gt;\nhttp://postimg.org/image/u71jmtaif/&lt;/a&gt;  &lt;a href=&quot;\nhttp://postimg.org/image/6bgsdzwjb/&quot; rel=&quot;nofollow&quot; target=&quot;_NEW&quot;&gt;\nhttp://postimg.org/image/6bgsdzwjb/&lt;/a&gt;  &lt;a href=&quot;\nhttp://postimg.org/image/77dsckl53/&quot; rel=&quot;nofollow&quot; target=&quot;_NEW&quot;&gt;\nhttp://postimg.org/image/77dsckl53/&lt;/a&gt;\n","torrent":{"xt":"urn:btih:cb18ae85965851708426ff439af2607deff543df","amp;dn":"%5BMARATHI%5D+Piraticha-Tujhya+Majhya+Piraticha+%5BBHOR%5D+720p+2012","amp;tr":["udp%3A%2F%2Ftracker.openbittorrent.com%3A80","udp%3A%2F%2Fopen.demonii.com%3A1337","udp%3A%2F%2Ftracker.coppersurfer.tk%3A6969","udp%3A%2F%2Fexodus.desync.com%3A6969"],"infoHash":"cb18ae85965851708426ff439af2607deff543df","infoHashBuffer":{"type":"Buffer","data":[203,24,174,133,150,88,81,112,132,38,255,67,154,242,96,125,239,245,67,223]},"announce":[],"urlList":[]}}